<svg xmlns="http://www.w3.org/2000/svg" viewBox="0 0 172.54 52.72">
  <title>logo</title>
  <g>
    <g>
      <path d="M37.64.06,23.21,0A12.14,12.14,0,0,0,11.69,15.57a12.36,12.36,0,0,0,11.89,8.55H37.81a5.38,5.38,0,0,0-5.38-5.38h-9a6.81,6.81,0,0,1-6.85-6,6.69,6.69,0,0,1,6.65-7.33l9.05,0A5.35,5.35,0,0,0,37.64.06Z" fill="#6406ff"/>
      <path d="M37.24,28.33a6.94,6.94,0,0,0,6.93-6.8,6.69,6.69,0,0,0-6.68-6.68H24.65A2.69,2.69,0,0,1,22,12.16h0a2.69,2.69,0,0,1,2.69-2.69H37.49A12.07,12.07,0,0,1,49.55,21.54a12.26,12.26,0,0,1-8.62,11.54,10.84,10.84,0,0,1-1.67.33,15.49,15.49,0,0,0-4.83-4.9Z" fill="#00c6ff"/>
      <path d="M24.25,28.61l-12.91.11h0A5.34,5.34,0,0,0,16.71,34L25.47,34a6.68,6.68,0,1,1,0,13.36h-9a5.34,5.34,0,0,0-5.34,5.35h0l14.3,0A12.22,12.22,0,0,0,37.53,40.66q0-.28,0-.56a11.71,11.71,0,0,0-5.07-8.93A13.7,13.7,0,0,0,24.25,28.61Z" fill="#ba06ff"/>
      <path d="M12.42,43.24H24a2.69,2.69,0,0,0,2.69-2.69h0A2.69,2.69,0,0,0,24,37.87H12.25a6.81,6.81,0,0,1-6.85-6,6.69,6.69,0,0,1,6.65-7.33h1.37a13.24,13.24,0,0,1-4-5.06,12.14,12.14,0,0,0-9,14.75A12.36,12.36,0,0,0,12.42,43.24Z" fill="#ff006d"/>
    </g>
    <path d="M70.52,23.07a19.85,19.85,0,0,1-5.06.57c-6.23,0-7.78-2.74-7.78-9s1.56-9,7.78-9a19.93,19.93,0,0,1,5.06.59l-.38,3.21a26.46,26.46,0,0,0-4-.32c-3.9,0-4,2.33-4,5.51s.09,5.51,4,5.51a24.39,24.39,0,0,0,4-.33Z" fill="#231f20"/>
    <path d="M72,23.46l5.41-15c.73-2,1.76-2.84,3.34-2.84s2.62.91,3.3,2.84l5.33,15H84.81l-1.26-4h-5.8l-1.22,4Zm10.51-7.21L80.61,10l-1.89,6.21Z" fill="#231f20"/>
    <path d="M96.05,10.45c0,1.43,1.05,1.66,3.09,2.18,3.74,1,5.11,2.36,5.11,5.51,0,4-2.55,5.41-7,5.41A26.71,26.71,0,0,1,91.67,23l.42-3.24a41.6,41.6,0,0,0,5,.42c1.79,0,2.73-.42,2.73-1.83s-1-1.67-2.73-2.18c-3.34-1-5.34-2-5.34-5.39,0-3.92,2.42-5.17,6.76-5.17a27.8,27.8,0,0,1,5.52.6l-.39,3.15a28.07,28.07,0,0,0-4.24-.42C98,8.91,96.05,9,96.05,10.45Z" fill="#231f20"/>
    <path d="M117.2,5.85h4.37V23.46H117.2V16.18h-5.73v7.29h-4.35V5.85h4.35v6.92h5.73Z" fill="#231f20"/>
    <path d="M56.7,30.71H70.08V34.6H65.86V48.33h-5V34.6H56.7Z" fill="#231f20"/>
    <path d="M78.43,48.33H73.48V31.07a34.74,34.74,0,0,1,6.31-.54c4.26,0,7.64.82,7.64,5.76,0,2.88-1.11,4.41-3,5.16l4.07,6.87H82.93l-3.5-6.21-1,0Zm0-10.06a12.47,12.47,0,0,0,1.4.06c1.71,0,2.68-.44,2.68-2,0-1.39-.59-2-2.63-2a11.81,11.81,0,0,0-1.45.09Z" fill="#231f20"/>
    <path d="M91.24,48.33l5.29-14.55c.85-2.34,1.91-3.24,3.64-3.24s2.81,1,3.6,3.24L109,48.33h-5.25l-1.09-3.66H97.42l-1.05,3.66ZM101.53,41,100,35.75,98.47,41Z" fill="#231f20"/>
    <path d="M112,31.1a34.39,34.39,0,0,1,6.34-.57c7,0,8.3,3,8.3,9s-1.26,9-8.3,9A34.36,34.36,0,0,1,112,48Zm5,13.43a6.92,6.92,0,0,0,.88.06c3.78,0,3.83-2.2,3.83-5.07s0-5.07-3.83-5.07a6.93,6.93,0,0,0-.88.06Z" fill="#231f20"/>
    <path d="M134.75,48.33h-5V30.71h5Z" fill="#231f20"/>
    <path d="M150.4,30.71h4.49V44.83c0,2.57-1,3.67-2.94,3.67s-2.71-.65-3.93-3.08l-4.09-8.13v11h-4.49V34.19c0-2.56,1.08-3.66,2.92-3.66,1.6,0,2.77.78,3.93,3.08l4.11,8.1Z" fill="#231f20"/>
    <path d="M165.46,38h7.08v6.62c0,3.71-2.79,3.9-6.59,3.9-6.27,0-7.87-2.74-7.87-9s1.6-9,7.87-9a29.58,29.58,0,0,1,6.29.61l-.43,3.67a36.47,36.47,0,0,0-5.24-.33c-3.3,0-3.47,2.12-3.47,5s.17,5.07,3.44,5.07c1.36,0,1.62-.36,1.62-1.5V41.66h-2.7Z" fill="#231f20"/>
    <g>
      <path d="M96.15,8.43V4.36h2.93a.68.68,0,0,1,.68.68V8.38Z" fill="#231f20"/>
      <path d="M99.77,20.69v4.07H96.84a.68.68,0,0,1-.68-.68V20.74Z" fill="#231f20"/>
    </g>
  </g>
</svg>
